<?xml version="1.0" standalone="no"?>
<!DOCTYPE svg PUBLIC "-//W3C//DTD SVG 20010904//EN"
 "http://www.w3.org/TR/2001/REC-SVG-20010904/DTD/svg10.dtd">
<svg version="1.0" xmlns="http://www.w3.org/2000/svg"
 width="400.000000pt" height="400.000000pt" viewBox="0 0 400.000000 400.000000"
 preserveAspectRatio="xMidYMid meet">

<g transform="translate(0.000000,400.000000) scale(0.100000,-0.100000)"
fill="#000000" stroke="none">
<path d="M1745 3984 c-268 -32 -556 -135 -796 -284 -262 -163 -507 -413 -669
-684 -203 -338 -304 -770 -272 -1161 41 -506 250 -951 608 -1295 362 -348 808
-537 1314 -557 967 -36 1823 634 2025 1587 198 939 -308 1893 -1201 2259 -311
128 -672 177 -1009 135z m430 -94 c750 -71 1385 -578 1624 -1295 77 -230 104
-452 89 -720 -41 -752 -547 -1419 -1266 -1669 -821 -286 -1726 22 -2205 749
-279 425 -378 944 -273 1440 199 936 1079 1584 2031 1495z"/>
<path d="M1705 3780 c-370 -67 -681 -224 -943 -475 -58 -55 -134 -136 -169
-180 -255 -316 -393 -710 -393 -1120 0 -287 56 -532 180 -791 244 -508 702
-863 1270 -986 92 -19 135 -22 340 -23 207 0 249 3 348 23 500 101 928 397
1194 824 363 585 356 1354 -19 1923 -278 421 -683 697 -1169 796 -159 32 -483
37 -639 9z m614 -730 c218 -17 353 -68 471 -177 159 -147 213 -374 131 -546
-35 -73 -108 -146 -184 -187 -26 -14 -46 -29 -44 -34 6 -18 72 -46 108 -46 77
0 193 115 239 236 43 116 35 226 -27 354 -38 78 -38 79 2 35 132 -144 147
-374 35 -536 -32 -47 -79 -86 -173 -144 -14 -9 -7 -21 45 -85 68 -84 92 -132
108 -221 35 -193 -76 -403 -265 -501 -198 -102 -257 -108 -1142 -108 -653 0
-718 1 -735 17 -16 15 -18 36 -18 250 l0 233 90 0 90 0 0 490 0 490 -90 0 -90
0 0 238 c0 131 3 242 7 245 10 11 1303 8 1442 -3z m844 -1353 c110 -217 -4
-506 -246 -621 -191 -90 -251 -96 -1058 -96 -575 0 -678 2 -688 14 -28 33 18
36 646 36 350 0 657 5 708 10 361 41 555 184 611 449 16 81 9 152 -27 246 -10
27 -19 52 -19 54 0 16 52 -49 73 -92z"/>
<path d="M927 3003 c-4 -3 -7 -91 -7 -195 l0 -188 90 0 90 0 0 -540 0 -540
-90 0 -90 0 0 -195 0 -195 643 0 c664 0 822 7 966 41 177 41 309 137 376 273
128 259 7 512 -291 610 -29 9 -60 26 -70 37 -16 18 -16 20 0 32 9 7 45 23 79
35 220 79 318 332 212 548 -78 159 -223 243 -475 274 -93 11 -1422 14 -1433 3z
m1100 -369 c77 -7 120 -34 151 -94 49 -97 10 -232 -82 -282 -32 -18 -149 -29
-228 -22 l-78 7 0 201 0 202 88 -3 c48 -2 115 -6 149 -9z m55 -704 c81 -23
138 -102 138 -190 0 -88 -38 -153 -115 -193 -33 -18 -62 -22 -177 -25 l-138
-4 0 217 0 218 128 -6 c70 -4 144 -12 164 -17z"/>
<path d="M1870 2425 l0 -156 33 6 c17 3 63 10 100 15 38 6 80 18 94 27 71 46
71 198 1 247 -17 12 -48 16 -125 16 l-103 0 0 -155z"/>
<path d="M1877 1883 c-4 -3 -7 -78 -7 -165 l0 -159 48 5 c26 3 73 8 105 12
100 10 153 76 145 177 -6 68 -36 113 -86 127 -41 11 -195 14 -205 3z"/>
</g>
</svg>
