<?xml version="1.0" standalone="no"?>
<!DOCTYPE svg PUBLIC "-//W3C//DTD SVG 20010904//EN"
 "http://www.w3.org/TR/2001/REC-SVG-20010904/DTD/svg10.dtd">
<svg version="1.0" xmlns="http://www.w3.org/2000/svg"
 width="680.000000pt" height="344.000000pt" viewBox="0 0 680.000000 344.000000"
 preserveAspectRatio="xMidYMid meet">

<g transform="translate(0.000000,344.000000) scale(0.100000,-0.100000)"
fill="#000000" stroke="none">
<path d="M4550 3184 c-295 -28 -459 -91 -537 -207 -40 -59 -48 -119 -39 -286
3 -70 6 -138 6 -153 l0 -28 370 0 370 0 0 -55 0 -55 -545 0 c-360 0 -562 -4
-597 -11 -170 -36 -304 -183 -358 -393 -46 -180 -46 -471 0 -665 43 -180 134
-312 258 -373 66 -33 69 -33 228 -36 l162 -4 4 239 c3 219 6 242 27 295 48
123 118 195 228 239 57 23 67 24 533 29 459 6 477 7 535 28 80 30 149 82 186
140 57 90 59 106 59 563 1 413 1 418 -22 466 -68 145 -254 236 -543 263 -103
9 -245 11 -325 4z m-200 -239 c70 -36 95 -109 61 -179 -70 -144 -293 -63 -252
92 23 83 116 126 191 87z"/>
<path d="M2875 2495 c-194 -113 -814 -472 -1341 -776 l-442 -254 17 -28 c31
-55 129 -137 203 -172 149 -71 298 -69 447 6 73 36 154 108 201 176 15 21 17
20 233 -105 119 -70 217 -129 217 -133 0 -18 -90 -137 -148 -198 -361 -368
-923 -414 -1340 -109 -78 57 -183 166 -233 243 l-43 64 -40 -24 c-23 -14 -157
-91 -298 -172 -142 -82 -258 -154 -258 -160 0 -35 120 -112 710 -452 349 -201
647 -371 661 -378 44 -19 115 -26 168 -14 63 13 1325 737 1381 792 20 19 47
58 61 85 l24 49 3 754 c2 510 -1 772 -8 807 -19 91 -17 91 -175 -1z m-435
-660 l0 -55 55 0 55 0 0 -60 0 -60 -55 0 -55 0 0 -55 0 -55 -60 0 -60 0 0 55
0 55 -55 0 -55 0 0 60 0 60 55 0 55 0 0 55 0 55 60 0 60 0 0 -55z m420 0 l0
-54 58 -3 57 -3 0 -55 0 -55 -57 -3 -58 -3 0 -54 0 -55 -55 0 -55 0 0 55 0 55
-60 0 -60 0 0 60 0 60 60 0 60 0 0 55 0 55 55 0 55 0 0 -55z"/>
</g>
</svg>
