<?xml version="1.0" encoding="UTF-8"?>
<!DOCTYPE svg PUBLIC "-//W3C//DTD SVG 1.1//EN" "http://www.w3.org/Graphics/SVG/1.1/DTD/svg11.dtd">
<svg xmlns="http://www.w3.org/2000/svg" version="1.1" width="1113px" height="640px" style="shape-rendering:geometricPrecision; text-rendering:geometricPrecision; image-rendering:optimizeQuality; fill-rule:evenodd; clip-rule:evenodd" xmlns:xlink="http://www.w3.org/1999/xlink">
<g><path style="opacity:1" fill="#fefefe" d="M -0.5,-0.5 C 370.5,-0.5 741.5,-0.5 1112.5,-0.5C 1112.5,5.16667 1112.5,10.8333 1112.5,16.5C 964.167,16.5 815.833,16.5 667.5,16.5C 600.375,219.041 532.375,421.208 463.5,623C 635.833,623.5 808.166,623.667 980.5,623.5C 980.389,624.117 980.056,624.617 979.5,625C 996.833,625.667 1014.17,625.667 1031.5,625C 1032.04,624.283 1032.71,623.783 1033.5,623.5C 1059.83,623.5 1086.17,623.5 1112.5,623.5C 1112.5,628.833 1112.5,634.167 1112.5,639.5C 741.5,639.5 370.5,639.5 -0.5,639.5C -0.5,634.167 -0.5,628.833 -0.5,623.5C 23.5,623.5 47.5,623.5 71.5,623.5C 72.2891,623.783 72.9558,624.283 73.5,625C 90.8333,625.667 108.167,625.667 125.5,625C 124.944,624.617 124.611,624.117 124.5,623.5C 230.5,623.5 336.5,623.5 442.5,623.5C 510.026,421.255 578.359,219.255 647.5,17.5C 431.501,16.5 215.501,16.1667 -0.5,16.5C -0.5,10.8333 -0.5,5.16667 -0.5,-0.5 Z"/></g>
<g><path style="opacity:1" fill="#f6ecb6" d="M -0.5,16.5 C 215.501,16.1667 431.501,16.5 647.5,17.5C 578.359,219.255 510.026,421.255 442.5,623.5C 336.5,623.5 230.5,623.5 124.5,623.5C 115.447,605.73 107.781,587.397 101.5,568.5C 107.851,575.017 115.518,579.517 124.5,582C 156.514,591.002 189.18,596.002 222.5,597C 274.278,600.056 325.611,596.722 376.5,587C 386.03,584.601 395.363,581.601 404.5,578C 422.088,568.099 421.755,558.766 403.5,550C 394.439,547.264 385.772,544.098 377.5,540.5C 409.257,519.799 422.423,490.466 417,452.5C 412.496,427.495 406.663,402.828 399.5,378.5C 422.646,370.427 444.646,359.927 465.5,347C 494.928,327.449 507.428,299.949 503,264.5C 497.66,234.276 481.493,212.109 454.5,198C 433.12,186.31 411.453,175.143 389.5,164.5C 387.557,149.498 383.057,135.164 376,121.5C 371.5,114.333 365.667,108.5 358.5,104C 355.937,102.921 353.271,102.421 350.5,102.5C 352.656,113.422 354.489,124.422 356,135.5C 362.034,138.561 365.368,143.561 366,150.5C 368.757,162.368 369.757,174.368 369,186.5C 367.663,187.904 366.497,189.404 365.5,191C 367.333,201.167 369.167,211.333 371,221.5C 371.725,223.158 372.892,223.658 374.5,223C 381.819,217.521 386.485,210.355 388.5,201.5C 407.625,220.091 424.125,240.757 438,263.5C 438.293,270.75 435.46,276.583 429.5,281C 409.87,293.939 388.537,303.105 365.5,308.5C 353.904,295.199 339.571,286.199 322.5,281.5C 337.556,265.064 348.223,246.064 354.5,224.5C 359.121,225.709 363.787,225.709 368.5,224.5C 366.833,213.164 365.166,201.831 363.5,190.5C 362.167,190.5 360.833,190.5 359.5,190.5C 359.953,172.553 356.953,155.22 350.5,138.5C 351.209,137.596 352.209,137.263 353.5,137.5C 351.743,125.867 350.076,114.201 348.5,102.5C 344.005,102.493 339.838,103.493 336,105.5C 335.505,107.473 335.338,109.473 335.5,111.5C 302.147,68.3446 258.147,50.1779 203.5,57C 141.211,71.6217 104.711,110.455 94,173.5C 90.2784,223.558 107.778,264.225 146.5,295.5C 136.275,302.879 126.442,310.879 117,319.5C 116.487,320.527 115.987,321.527 115.5,322.5C 109.8,324.1 104.967,327.1 101,331.5C 93.3333,348.833 85.6667,366.167 78,383.5C 72.8031,399.484 69.1365,415.817 67,432.5C 55.1731,474.143 43.5064,515.81 32,557.5C 31.5795,568.582 34.2461,578.915 40,588.5C 48.9135,601.581 59.4135,613.248 71.5,623.5C 47.5,623.5 23.5,623.5 -0.5,623.5C -0.5,421.167 -0.5,218.833 -0.5,16.5 Z"/></g>
<g><path style="opacity:1" fill="#b5d8f6" d="M 1112.5,16.5 C 1112.5,218.833 1112.5,421.167 1112.5,623.5C 1086.17,623.5 1059.83,623.5 1033.5,623.5C 1044.18,613.123 1053.68,601.79 1062,589.5C 1065.55,583.07 1068.55,576.404 1071,569.5C 1072.4,562.548 1072.73,555.548 1072,548.5C 1063.21,516.99 1054.87,485.324 1047,453.5C 1043.68,437.938 1041.01,422.272 1039,406.5C 1036.25,396.103 1033.25,385.77 1030,375.5C 1023.02,360.864 1016.02,346.198 1009,331.5C 1004.56,327.375 1000.06,323.375 995.5,319.5C 974.644,295.74 948.644,281.407 917.5,276.5C 951.755,268.242 977.755,248.909 995.5,218.5C 1014.64,184.089 1017.14,148.422 1003,111.5C 1001.39,107.944 999.559,104.611 997.5,101.5C 977.29,64.1724 945.956,42.6724 903.5,37C 852.7,33.9005 813.367,53.4005 785.5,95.5C 785.703,93.6096 785.037,92.1096 783.5,91C 779.848,90.5014 776.182,90.3347 772.5,90.5C 771.427,102.159 770.427,113.825 769.5,125.5C 770.209,126.404 771.209,126.737 772.5,126.5C 769.364,143.716 768.697,161.049 770.5,178.5C 768.5,178.5 766.5,178.5 764.5,178.5C 764.5,180.167 764.5,181.833 764.5,183.5C 763.889,193.837 763.222,204.171 762.5,214.5C 766.514,214.666 770.514,214.499 774.5,214C 776.278,211.865 776.945,209.365 776.5,206.5C 777.222,206.082 777.722,205.416 778,204.5C 780.34,209.855 783.174,214.855 786.5,219.5C 795.833,236.67 808.833,250.503 825.5,261C 831.053,263.608 836.387,266.441 841.5,269.5C 820.172,269.047 799.505,272.547 779.5,280C 765.638,285.587 753.972,294.087 744.5,305.5C 725.373,300.401 707.04,293.235 689.5,284C 684.714,280.882 680.214,277.382 676,273.5C 670.467,267.097 670.133,260.43 675,253.5C 692.788,228.701 712.454,205.368 734,183.5C 734.832,173.816 734.665,164.149 733.5,154.5C 699.72,170.219 667.054,187.719 635.5,207C 608.661,233.522 600.161,265.022 610,301.5C 615,315.18 623.167,326.68 634.5,336C 657.457,353.312 682.79,366.146 710.5,374.5C 702.769,400.094 696.602,426.094 692,452.5C 688.457,493.764 704.957,523.764 741.5,542.5C 732.385,545.95 723.385,550.117 714.5,555C 707.549,561.722 707.882,568.055 715.5,574C 728.997,581.388 743.33,586.388 758.5,589C 805.178,596.945 852.178,599.612 899.5,597C 932.594,596.388 965.094,591.888 997,583.5C 997.464,584.094 997.631,584.761 997.5,585.5C 992.385,598.399 986.718,611.065 980.5,623.5C 808.166,623.667 635.833,623.5 463.5,623C 532.375,421.208 600.375,219.041 667.5,16.5C 815.833,16.5 964.167,16.5 1112.5,16.5 Z"/></g>
<g><path style="opacity:1" fill="#5c8dbc" d="M 997.5,101.5 C 983.648,108.454 969.981,115.787 956.5,123.5C 950.488,111.984 941.821,102.817 930.5,96C 894.881,76.6613 863.048,81.4946 835,110.5C 814.991,137.238 812.491,165.571 827.5,195.5C 813.333,202.747 799.666,210.747 786.5,219.5C 783.174,214.855 780.34,209.855 778,204.5C 777.722,205.416 777.222,206.082 776.5,206.5C 777.389,198.17 777.889,189.836 778,181.5C 777.5,181 777,180.5 776.5,180C 772.848,179.501 769.182,179.335 765.5,179.5C 765.768,181.099 765.434,182.432 764.5,183.5C 764.5,181.833 764.5,180.167 764.5,178.5C 766.5,178.5 768.5,178.5 770.5,178.5C 768.697,161.049 769.364,143.716 772.5,126.5C 771.209,126.737 770.209,126.404 769.5,125.5C 772.157,125.83 774.824,126.163 777.5,126.5C 779.693,126.674 781.527,126.007 783,124.5C 783.836,114.824 784.669,105.158 785.5,95.5C 813.367,53.4005 852.7,33.9005 903.5,37C 945.956,42.6724 977.29,64.1724 997.5,101.5 Z"/></g>
<g><path style="opacity:1" fill="#3871a1" d="M 335.5,111.5 C 336.732,120.628 338.566,129.628 341,138.5C 344.131,139.7 347.298,139.7 350.5,138.5C 356.953,155.22 359.953,172.553 359.5,190.5C 356.611,191.008 353.778,191.675 351,192.5C 351.739,203.182 352.906,213.849 354.5,224.5C 348.223,246.064 337.556,265.064 322.5,281.5C 279.047,321.89 229.38,331.724 173.5,311C 163.838,306.805 154.838,301.638 146.5,295.5C 107.778,264.225 90.2784,223.558 94,173.5C 104.711,110.455 141.211,71.6217 203.5,57C 258.147,50.1779 302.147,68.3446 335.5,111.5 Z"/></g>
<g><path style="opacity:1" fill="#464748" d="M 704.5,83.5 C 706.144,83.2865 707.644,83.6198 709,84.5C 709.977,86.74 710.477,89.0733 710.5,91.5C 698.799,94.0278 690.965,101.028 687,112.5C 686.05,119.629 686.55,126.629 688.5,133.5C 685.85,135.494 682.85,136.494 679.5,136.5C 673.075,111.742 681.408,94.0755 704.5,83.5 Z"/></g>
<g><path style="opacity:1" fill="#fdfdfe" d="M 956.5,123.5 C 944.677,129.245 933.01,135.245 921.5,141.5C 904.327,119.917 885.16,117.917 864,135.5C 853.937,148.718 853.104,162.385 861.5,176.5C 874.38,193.55 890.38,197.05 909.5,187C 913.38,184.621 916.38,181.454 918.5,177.5C 929.27,182.719 939.937,188.219 950.5,194C 952.063,194.759 953.063,195.926 953.5,197.5C 934.433,224.522 908.433,235.356 875.5,230C 854.849,224.832 838.849,213.332 827.5,195.5C 812.491,165.571 814.991,137.238 835,110.5C 863.048,81.4946 894.881,76.6613 930.5,96C 941.821,102.817 950.488,111.984 956.5,123.5 Z"/></g>
<g><path style="opacity:1" fill="#484746" d="M 410.5,90.5 C 428.303,93.1301 439.803,103.13 445,120.5C 445.667,126.5 445.667,132.5 445,138.5C 444.326,139.578 443.326,140.245 442,140.5C 439.863,139.923 437.696,139.59 435.5,139.5C 439.912,121.496 433.912,108.329 417.5,100C 414.883,99.1785 412.216,98.6785 409.5,98.5C 409.575,95.7938 409.908,93.1272 410.5,90.5 Z"/></g>
<g><path style="opacity:1" fill="#444545" d="M 764.5,90.5 C 766.167,90.5 767.833,90.5 769.5,90.5C 768.889,102.17 768.222,113.837 767.5,125.5C 763.618,126.211 761.118,128.544 760,132.5C 757.79,146.429 757.123,160.429 758,174.5C 758.637,176.303 759.803,177.636 761.5,178.5C 761.833,180.167 762.167,181.833 762.5,183.5C 761.086,193.452 760.42,203.452 760.5,213.5C 752.339,210.844 746.506,205.511 743,197.5C 734.571,171.558 734.571,145.558 743,119.5C 746.801,107.187 753.967,97.5208 764.5,90.5 Z"/></g>
<g><path style="opacity:1" fill="#444545" d="M 785.5,95.5 C 784.669,105.158 783.836,114.824 783,124.5C 781.527,126.007 779.693,126.674 777.5,126.5C 774.824,126.163 772.157,125.83 769.5,125.5C 770.427,113.825 771.427,102.159 772.5,90.5C 776.182,90.3347 779.848,90.5014 783.5,91C 785.037,92.1096 785.703,93.6096 785.5,95.5 Z"/></g>
<g><path style="opacity:1" fill="#fdfdfe" d="M 206.5,94.5 C 218.589,94.0949 230.589,94.9282 242.5,97C 251.465,98.0653 258.965,101.899 265,108.5C 265.667,109.833 266.333,111.167 267,112.5C 267.667,130.5 267.667,148.5 267,166.5C 263.876,175.956 257.376,181.456 247.5,183C 229.167,183.333 210.833,183.667 192.5,184C 183.58,185.923 177.413,191.09 174,199.5C 173.5,210.161 173.333,220.828 173.5,231.5C 165.493,231.666 157.493,231.5 149.5,231C 143.333,228.833 139.167,224.667 137,218.5C 131.368,200.502 130.035,182.169 133,163.5C 137.001,152.167 144.834,145 156.5,142C 178.164,141.5 199.831,141.333 221.5,141.5C 221.5,139.833 221.5,138.167 221.5,136.5C 206.833,136.5 192.167,136.5 177.5,136.5C 177.334,128.493 177.5,120.493 178,112.5C 180.899,105.268 186.066,100.435 193.5,98C 197.936,96.7553 202.269,95.5887 206.5,94.5 Z"/></g>
<g><path style="opacity:1" fill="#454647" d="M 710.5,100.5 C 711.833,100.5 713.167,100.5 714.5,100.5C 714.756,102.937 715.423,105.271 716.5,107.5C 709.085,109.74 704.752,114.573 703.5,122C 706.384,128.954 704.051,132.12 696.5,131.5C 692.25,117.007 696.917,106.674 710.5,100.5 Z"/></g>
<g><path style="opacity:1" fill="#1c598e" d="M 997.5,101.5 C 999.559,104.611 1001.39,107.944 1003,111.5C 1017.14,148.422 1014.64,184.089 995.5,218.5C 982.107,211.052 968.607,203.719 955,196.5C 954.617,197.056 954.117,197.389 953.5,197.5C 953.063,195.926 952.063,194.759 950.5,194C 939.937,188.219 929.27,182.719 918.5,177.5C 908.362,171.595 898.029,165.929 887.5,160.5C 898.77,154.195 910.103,147.862 921.5,141.5C 933.01,135.245 944.677,129.245 956.5,123.5C 969.981,115.787 983.648,108.454 997.5,101.5 Z"/></g>
<g><path style="opacity:1" fill="#454544" d="M 389.5,164.5 C 391.023,176.893 390.69,189.226 388.5,201.5C 386.485,210.355 381.819,217.521 374.5,223C 372.892,223.658 371.725,223.158 371,221.5C 369.167,211.333 367.333,201.167 365.5,191C 366.497,189.404 367.663,187.904 369,186.5C 369.757,174.368 368.757,162.368 366,150.5C 365.368,143.561 362.034,138.561 356,135.5C 354.489,124.422 352.656,113.422 350.5,102.5C 353.271,102.421 355.937,102.921 358.5,104C 365.667,108.5 371.5,114.333 376,121.5C 383.057,135.164 387.557,149.498 389.5,164.5 Z"/></g>
<g><path style="opacity:1" fill="#454545" d="M 350.5,138.5 C 347.298,139.7 344.131,139.7 341,138.5C 338.566,129.628 336.732,120.628 335.5,111.5C 335.338,109.473 335.505,107.473 336,105.5C 339.838,103.493 344.005,102.493 348.5,102.5C 350.076,114.201 351.743,125.867 353.5,137.5C 352.209,137.263 351.209,137.596 350.5,138.5 Z"/></g>
<g><path style="opacity:1" fill="#484846" d="M 406.5,107.5 C 423.308,110.104 429.974,119.77 426.5,136.5C 423.956,136.949 421.29,136.949 418.5,136.5C 421.484,125.123 417.317,118.123 406,115.5C 405.825,112.843 405.992,110.176 406.5,107.5 Z"/></g>
<g><path style="opacity:1" fill="#3d74a3" d="M 195.5,109.5 C 206.055,108.871 209.388,113.371 205.5,123C 195.553,127.608 191.053,124.442 192,113.5C 193.376,112.295 194.542,110.962 195.5,109.5 Z"/></g>
<g><path style="opacity:1" fill="#5c8dbc" d="M 921.5,141.5 C 910.103,147.862 898.77,154.195 887.5,160.5C 880.554,164.309 873.554,168.142 866.5,172C 864.308,173.067 862.642,174.567 861.5,176.5C 853.104,162.385 853.937,148.718 864,135.5C 885.16,117.917 904.327,119.917 921.5,141.5 Z"/></g>
<g><path style="opacity:1" fill="#fdd142" d="M 273.5,143.5 C 282.25,143.09 290.916,143.59 299.5,145C 308.671,152.174 313.505,161.674 314,173.5C 314.827,186.534 314.493,199.534 313,212.5C 308.944,224.128 300.777,230.961 288.5,233C 267.503,233.5 246.503,233.667 225.5,233.5C 225.5,235.167 225.5,236.833 225.5,238.5C 239.833,238.5 254.167,238.5 268.5,238.5C 274.621,260.796 266.621,274.296 244.5,279C 226.839,281.834 209.506,280.5 192.5,275C 186.728,272.894 182.562,269.061 180,263.5C 179.333,244.5 179.333,225.5 180,206.5C 183.138,198.502 188.972,193.668 197.5,192C 216.5,191.667 235.5,191.333 254.5,191C 263.991,188.175 270.158,182.009 273,172.5C 273.5,162.839 273.666,153.172 273.5,143.5 Z"/></g>
<g><path style="opacity:1" fill="#7fa1bf" d="M 955.5,147.5 C 952.167,147.5 948.833,147.5 945.5,147.5C 945.5,150.5 945.5,153.5 945.5,156.5C 942.167,156.5 938.833,156.5 935.5,156.5C 938.287,155.523 941.287,155.19 944.5,155.5C 944.5,152.5 944.5,149.5 944.5,146.5C 948.371,146.185 952.038,146.518 955.5,147.5 Z"/></g>
<g><path style="opacity:1" fill="#f9fafc" d="M 955.5,147.5 C 955.5,150.5 955.5,153.5 955.5,156.5C 958.5,156.5 961.5,156.5 964.5,156.5C 964.5,159.833 964.5,163.167 964.5,166.5C 961.167,166.5 957.833,166.5 954.5,166.5C 954.5,169.167 954.5,171.833 954.5,174.5C 951.5,174.5 948.5,174.5 945.5,174.5C 945.806,171.615 945.473,168.948 944.5,166.5C 941.5,166.5 938.5,166.5 935.5,166.5C 935.5,163.167 935.5,159.833 935.5,156.5C 938.833,156.5 942.167,156.5 945.5,156.5C 945.5,153.5 945.5,150.5 945.5,147.5C 948.833,147.5 952.167,147.5 955.5,147.5 Z"/></g>
<g><path style="opacity:1" fill="#7fa1bf" d="M 986.5,147.5 C 983.167,147.5 979.833,147.5 976.5,147.5C 976.5,150.5 976.5,153.5 976.5,156.5C 973.167,156.5 969.833,156.5 966.5,156.5C 969.287,155.523 972.287,155.19 975.5,155.5C 975.5,152.5 975.5,149.5 975.5,146.5C 979.371,146.185 983.038,146.518 986.5,147.5 Z"/></g>
<g><path style="opacity:1" fill="#fafbfc" d="M 986.5,147.5 C 986.5,150.167 986.5,152.833 986.5,155.5C 988.948,156.473 991.615,156.806 994.5,156.5C 994.5,159.833 994.5,163.167 994.5,166.5C 991.5,166.5 988.5,166.5 985.5,166.5C 985.5,169.167 985.5,171.833 985.5,174.5C 982.5,174.5 979.5,174.5 976.5,174.5C 976.806,171.615 976.473,168.948 975.5,166.5C 972.5,166.5 969.5,166.5 966.5,166.5C 966.5,163.167 966.5,159.833 966.5,156.5C 969.833,156.5 973.167,156.5 976.5,156.5C 976.5,153.5 976.5,150.5 976.5,147.5C 979.833,147.5 983.167,147.5 986.5,147.5 Z"/></g>
<g><path style="opacity:1" fill="#f8f6f7" d="M 744.5,305.5 C 732.895,328.377 721.561,351.377 710.5,374.5C 682.79,366.146 657.457,353.312 634.5,336C 623.167,326.68 615,315.18 610,301.5C 600.161,265.022 608.661,233.522 635.5,207C 667.054,187.719 699.72,170.219 733.5,154.5C 734.665,164.149 734.832,173.816 734,183.5C 712.454,205.368 692.788,228.701 675,253.5C 670.133,260.43 670.467,267.097 676,273.5C 680.214,277.382 684.714,280.882 689.5,284C 707.04,293.235 725.373,300.401 744.5,305.5 Z"/></g>
<g><path style="opacity:1" fill="#789cbc" d="M 986.5,155.5 C 989.5,155.5 992.5,155.5 995.5,155.5C 995.815,159.371 995.482,163.038 994.5,166.5C 994.5,163.167 994.5,159.833 994.5,156.5C 991.615,156.806 988.948,156.473 986.5,155.5 Z"/></g>
<g><path style="opacity:1" fill="#1a4775" d="M 887.5,160.5 C 898.029,165.929 908.362,171.595 918.5,177.5C 916.38,181.454 913.38,184.621 909.5,187C 890.38,197.05 874.38,193.55 861.5,176.5C 862.642,174.567 864.308,173.067 866.5,172C 873.554,168.142 880.554,164.309 887.5,160.5 Z"/></g>
<g><path style="opacity:1" fill="#f8f6f6" d="M 389.5,164.5 C 411.453,175.143 433.12,186.31 454.5,198C 481.493,212.109 497.66,234.276 503,264.5C 507.428,299.949 494.928,327.449 465.5,347C 444.646,359.927 422.646,370.427 399.5,378.5C 387.658,355.481 376.325,332.148 365.5,308.5C 388.537,303.105 409.87,293.939 429.5,281C 435.46,276.583 438.293,270.75 438,263.5C 424.125,240.757 407.625,220.091 388.5,201.5C 390.69,189.226 391.023,176.893 389.5,164.5 Z"/></g>
<g><path style="opacity:1" fill="#8baac6" d="M 944.5,166.5 C 945.473,168.948 945.806,171.615 945.5,174.5C 948.5,174.5 951.5,174.5 954.5,174.5C 951.375,175.479 948.042,175.813 944.5,175.5C 944.5,172.5 944.5,169.5 944.5,166.5 Z"/></g>
<g><path style="opacity:1" fill="#8baac6" d="M 975.5,166.5 C 976.473,168.948 976.806,171.615 976.5,174.5C 979.5,174.5 982.5,174.5 985.5,174.5C 982.375,175.479 979.042,175.813 975.5,175.5C 975.5,172.5 975.5,169.5 975.5,166.5 Z"/></g>
<g><path style="opacity:1" fill="#444546" d="M 776.5,206.5 C 776.945,209.365 776.278,211.865 774.5,214C 770.514,214.499 766.514,214.666 762.5,214.5C 763.222,204.171 763.889,193.837 764.5,183.5C 765.434,182.432 765.768,181.099 765.5,179.5C 769.182,179.335 772.848,179.501 776.5,180C 777,180.5 777.5,181 778,181.5C 777.889,189.836 777.389,198.17 776.5,206.5 Z"/></g>
<g><path style="opacity:1" fill="#444444" d="M 359.5,190.5 C 360.833,190.5 362.167,190.5 363.5,190.5C 365.166,201.831 366.833,213.164 368.5,224.5C 363.787,225.709 359.121,225.709 354.5,224.5C 352.906,213.849 351.739,203.182 351,192.5C 353.778,191.675 356.611,191.008 359.5,190.5 Z"/></g>
<g><path style="opacity:1" fill="#1a4674" d="M 827.5,195.5 C 838.849,213.332 854.849,224.832 875.5,230C 908.433,235.356 934.433,224.522 953.5,197.5C 954.117,197.389 954.617,197.056 955,196.5C 968.607,203.719 982.107,211.052 995.5,218.5C 977.755,248.909 951.755,268.242 917.5,276.5C 891.466,281.792 866.132,279.459 841.5,269.5C 836.387,266.441 831.053,263.608 825.5,261C 808.833,250.503 795.833,236.67 786.5,219.5C 799.666,210.747 813.333,202.747 827.5,195.5 Z"/></g>
<g><path style="opacity:1" fill="#3f739e" d="M 244.5,249.5 C 255.785,249.092 258.785,253.759 253.5,263.5C 243.941,267.117 239.775,263.784 241,253.5C 242.032,251.973 243.199,250.64 244.5,249.5 Z"/></g>
<g><path style="opacity:1" fill="#fefefe" d="M 841.5,269.5 C 866.132,279.459 891.466,281.792 917.5,276.5C 948.644,281.407 974.644,295.74 995.5,319.5C 980.935,315.295 966.269,316.128 951.5,322C 941.645,326.179 935.978,333.512 934.5,344C 936.157,355.463 938.991,366.629 943,377.5C 961.333,421.833 979.667,466.167 998,510.5C 999.684,514.716 1000.85,519.049 1001.5,523.5C 993.7,529.24 985.366,534.24 976.5,538.5C 936.906,555.994 895.406,564.66 852,564.5C 822.925,564.752 794.425,560.918 766.5,553C 757.771,550.37 749.438,546.87 741.5,542.5C 704.957,523.764 688.457,493.764 692,452.5C 696.602,426.094 702.769,400.094 710.5,374.5C 721.561,351.377 732.895,328.377 744.5,305.5C 753.972,294.087 765.638,285.587 779.5,280C 799.505,272.547 820.172,269.047 841.5,269.5 Z"/></g>
<g><path style="opacity:1" fill="#fefefe" d="M 322.5,281.5 C 339.571,286.199 353.904,295.199 365.5,308.5C 376.325,332.148 387.658,355.481 399.5,378.5C 406.663,402.828 412.496,427.495 417,452.5C 422.423,490.466 409.257,519.799 377.5,540.5C 362.996,549.618 347.329,556.118 330.5,560C 275.054,571.374 220.054,569.707 165.5,555C 154.689,551.924 144.355,547.758 134.5,542.5C 122.87,537.689 112.203,531.356 102.5,523.5C 106.096,511.64 110.262,499.973 115,488.5C 130.057,453.997 144.723,419.33 159,384.5C 164.249,371.593 167.749,358.26 169.5,344.5C 168.184,330.681 160.517,322.848 146.5,321C 136.081,320.11 125.748,320.61 115.5,322.5C 115.987,321.527 116.487,320.527 117,319.5C 126.442,310.879 136.275,302.879 146.5,295.5C 154.838,301.638 163.838,306.805 173.5,311C 229.38,331.724 279.047,321.89 322.5,281.5 Z"/></g>
<g><path style="opacity:1" fill="#f8f7f7" d="M 995.5,319.5 C 1000.06,323.375 1004.56,327.375 1009,331.5C 1016.02,346.198 1023.02,360.864 1030,375.5C 1033.25,385.77 1036.25,396.103 1039,406.5C 1041.01,422.272 1043.68,437.938 1047,453.5C 1054.87,485.324 1063.21,516.99 1072,548.5C 1072.73,555.548 1072.4,562.548 1071,569.5C 1068.55,576.404 1065.55,583.07 1062,589.5C 1053.68,601.79 1044.18,613.123 1033.5,623.5C 1032.71,623.783 1032.04,624.283 1031.5,625C 1014.17,625.667 996.833,625.667 979.5,625C 980.056,624.617 980.389,624.117 980.5,623.5C 986.718,611.065 992.385,598.399 997.5,585.5C 1002.85,573.785 1006.18,561.452 1007.5,548.5C 1007.2,539.648 1005.2,531.315 1001.5,523.5C 1000.85,519.049 999.684,514.716 998,510.5C 979.667,466.167 961.333,421.833 943,377.5C 938.991,366.629 936.157,355.463 934.5,344C 935.978,333.512 941.645,326.179 951.5,322C 966.269,316.128 980.935,315.295 995.5,319.5 Z"/></g>
<g><path style="opacity:1" fill="#f9f7f6" d="M 102.5,523.5 C 96.1372,536.816 95.1372,550.483 99.5,564.5C 99.9887,565.995 100.655,567.329 101.5,568.5C 107.781,587.397 115.447,605.73 124.5,623.5C 124.611,624.117 124.944,624.617 125.5,625C 108.167,625.667 90.8333,625.667 73.5,625C 72.9558,624.283 72.2891,623.783 71.5,623.5C 59.4135,613.248 48.9135,601.581 40,588.5C 34.2461,578.915 31.5795,568.582 32,557.5C 43.5064,515.81 55.1731,474.143 67,432.5C 69.1365,415.817 72.8031,399.484 78,383.5C 85.6667,366.167 93.3333,348.833 101,331.5C 104.967,327.1 109.8,324.1 115.5,322.5C 125.748,320.61 136.081,320.11 146.5,321C 160.517,322.848 168.184,330.681 169.5,344.5C 167.749,358.26 164.249,371.593 159,384.5C 144.723,419.33 130.057,453.997 115,488.5C 110.262,499.973 106.096,511.64 102.5,523.5 Z"/></g>
<g><path style="opacity:1" fill="#c1b791" d="M 798.5,396.5 C 803.57,396.685 808.57,397.352 813.5,398.5C 812.833,400.833 812.167,403.167 811.5,405.5C 808.135,405.046 804.802,404.38 801.5,403.5C 794.844,405.107 791.844,409.441 792.5,416.5C 791.003,425.147 794.503,429.814 803,430.5C 806.282,430.269 809.449,429.603 812.5,428.5C 812.808,430.924 812.474,433.257 811.5,435.5C 794.099,441.103 784.766,434.77 783.5,416.5C 783.706,406.035 788.706,399.369 798.5,396.5 Z"/></g>
<g><path style="opacity:1" fill="#89a6ba" d="M 173.5,402.5 C 179.909,402.183 186.243,402.683 192.5,404C 197.71,408.12 198.877,413.286 196,419.5C 191.941,423.228 187.107,424.895 181.5,424.5C 181.5,428.5 181.5,432.5 181.5,436.5C 178.833,436.5 176.167,436.5 173.5,436.5C 173.5,425.167 173.5,413.833 173.5,402.5 Z"/></g>
<g><path style="opacity:1" fill="#8aa6ba" d="M 200.5,403.5 C 202.966,402.366 205.633,402.199 208.5,403C 210.707,407.247 213.04,411.414 215.5,415.5C 217.96,411.414 220.293,407.247 222.5,403C 225.167,402.333 227.833,402.333 230.5,403C 226.873,409.085 223.373,415.252 220,421.5C 219.501,426.489 219.334,431.489 219.5,436.5C 216.833,436.5 214.167,436.5 211.5,436.5C 211.666,431.489 211.499,426.489 211,421.5C 207.726,415.273 204.226,409.273 200.5,403.5 Z"/></g>
<g><path style="opacity:1" fill="#86a4b8" d="M 231.5,402.5 C 240.167,402.5 248.833,402.5 257.5,402.5C 257.5,404.5 257.5,406.5 257.5,408.5C 254.167,408.5 250.833,408.5 247.5,408.5C 247.5,417.833 247.5,427.167 247.5,436.5C 245.167,436.5 242.833,436.5 240.5,436.5C 240.5,427.167 240.5,417.833 240.5,408.5C 237.5,408.5 234.5,408.5 231.5,408.5C 231.5,406.5 231.5,404.5 231.5,402.5 Z"/></g>
<g><path style="opacity:1" fill="#88a5b9" d="M 261.5,402.5 C 264.167,402.5 266.833,402.5 269.5,402.5C 269.5,406.833 269.5,411.167 269.5,415.5C 273.833,415.5 278.167,415.5 282.5,415.5C 282.5,411.167 282.5,406.833 282.5,402.5C 284.833,402.5 287.167,402.5 289.5,402.5C 289.5,413.833 289.5,425.167 289.5,436.5C 287.167,436.5 284.833,436.5 282.5,436.5C 282.5,431.5 282.5,426.5 282.5,421.5C 278.167,421.5 273.833,421.5 269.5,421.5C 269.5,426.5 269.5,431.5 269.5,436.5C 266.833,436.5 264.167,436.5 261.5,436.5C 261.5,425.167 261.5,413.833 261.5,402.5 Z"/></g>
<g><path style="opacity:1" fill="#86a3b8" d="M 310.5,402.5 C 326.01,402.519 332.176,410.185 329,425.5C 326.772,433.205 321.605,436.872 313.5,436.5C 305.901,436.792 300.735,433.458 298,426.5C 296.873,420.245 297.54,414.245 300,408.5C 302.793,405.027 306.293,403.027 310.5,402.5 Z"/></g>
<g><path style="opacity:1" fill="#89a6ba" d="M 336.5,402.5 C 339.898,402.18 343.232,402.513 346.5,403.5C 351,411.167 355.5,418.833 360,426.5C 360.5,418.507 360.666,410.507 360.5,402.5C 362.833,402.5 365.167,402.5 367.5,402.5C 367.5,413.833 367.5,425.167 367.5,436.5C 364.102,436.82 360.768,436.487 357.5,435.5C 353,427.833 348.5,420.167 344,412.5C 343.5,420.493 343.334,428.493 343.5,436.5C 341.167,436.5 338.833,436.5 336.5,436.5C 336.5,425.167 336.5,413.833 336.5,402.5 Z"/></g>
<g><path style="opacity:1" fill="#c1b892" d="M 828.5,403.5 C 830.5,403.5 832.5,403.5 834.5,403.5C 834.5,407.167 834.5,410.833 834.5,414.5C 837.833,414.5 841.167,414.5 844.5,414.5C 844.5,416.5 844.5,418.5 844.5,420.5C 841.167,420.5 837.833,420.5 834.5,420.5C 834.5,423.833 834.5,427.167 834.5,430.5C 832.5,430.5 830.5,430.5 828.5,430.5C 828.5,427.167 828.5,423.833 828.5,420.5C 824.833,420.5 821.167,420.5 817.5,420.5C 817.5,418.5 817.5,416.5 817.5,414.5C 821.167,414.5 824.833,414.5 828.5,414.5C 828.5,410.833 828.5,407.167 828.5,403.5 Z"/></g>
<g><path style="opacity:1" fill="#c1b892" d="M 859.5,403.5 C 861.5,403.5 863.5,403.5 865.5,403.5C 865.5,407.167 865.5,410.833 865.5,414.5C 868.833,414.5 872.167,414.5 875.5,414.5C 875.5,416.5 875.5,418.5 875.5,420.5C 872.167,420.5 868.833,420.5 865.5,420.5C 865.5,423.833 865.5,427.167 865.5,430.5C 863.5,430.5 861.5,430.5 859.5,430.5C 859.5,427.167 859.5,423.833 859.5,420.5C 855.833,420.5 852.167,420.5 848.5,420.5C 848.5,418.5 848.5,416.5 848.5,414.5C 852.167,414.5 855.833,414.5 859.5,414.5C 859.5,410.833 859.5,407.167 859.5,403.5 Z"/></g>
<g><path style="opacity:1" fill="#fafbfc" d="M 181.5,408.5 C 186.02,407.76 189.02,409.427 190.5,413.5C 189.145,417.917 186.145,419.584 181.5,418.5C 181.5,415.167 181.5,411.833 181.5,408.5 Z"/></g>
<g><path style="opacity:1" fill="#fafbfc" d="M 309.5,408.5 C 319.922,408.098 324.089,413.098 322,423.5C 320.154,429.995 315.988,432.162 309.5,430C 302.948,422.785 302.948,415.618 309.5,408.5 Z"/></g>
<g><path style="opacity:1" fill="#f7edb8" d="M 102.5,523.5 C 112.203,531.356 122.87,537.689 134.5,542.5C 126.156,545.679 117.823,549.179 109.5,553C 104.839,555.818 101.505,559.651 99.5,564.5C 95.1372,550.483 96.1372,536.816 102.5,523.5 Z"/></g>
<g><path style="opacity:1" fill="#b7d9f7" d="M 1001.5,523.5 C 1005.2,531.315 1007.2,539.648 1007.5,548.5C 998.232,545.14 988.732,542.474 979,540.5C 977.624,540.316 976.791,539.649 976.5,538.5C 985.366,534.24 993.7,529.24 1001.5,523.5 Z"/></g>
<g><path style="opacity:1" fill="#cbe4f9" d="M 976.5,538.5 C 976.791,539.649 977.624,540.316 979,540.5C 988.732,542.474 998.232,545.14 1007.5,548.5C 1006.18,561.452 1002.85,573.785 997.5,585.5C 997.631,584.761 997.464,584.094 997,583.5C 965.094,591.888 932.594,596.388 899.5,597C 852.178,599.612 805.178,596.945 758.5,589C 743.33,586.388 728.997,581.388 715.5,574C 707.882,568.055 707.549,561.722 714.5,555C 723.385,550.117 732.385,545.95 741.5,542.5C 749.438,546.87 757.771,550.37 766.5,553C 794.425,560.918 822.925,564.752 852,564.5C 895.406,564.66 936.906,555.994 976.5,538.5 Z"/></g>
<g><path style="opacity:1" fill="#f9f2cd" d="M 377.5,540.5 C 385.772,544.098 394.439,547.264 403.5,550C 421.755,558.766 422.088,568.099 404.5,578C 395.363,581.601 386.03,584.601 376.5,587C 325.611,596.722 274.278,600.056 222.5,597C 189.18,596.002 156.514,591.002 124.5,582C 115.518,579.517 107.851,575.017 101.5,568.5C 100.655,567.329 99.9887,565.995 99.5,564.5C 101.505,559.651 104.839,555.818 109.5,553C 117.823,549.179 126.156,545.679 134.5,542.5C 144.355,547.758 154.689,551.924 165.5,555C 220.054,569.707 275.054,571.374 330.5,560C 347.329,556.118 362.996,549.618 377.5,540.5 Z"/></g>
</svg>
