<?xml version="1.0" encoding="UTF-8"?>
<!DOCTYPE svg PUBLIC "-//W3C//DTD SVG 1.1//EN" "http://www.w3.org/Graphics/SVG/1.1/DTD/svg11.dtd">
<svg xmlns="http://www.w3.org/2000/svg" version="1.1" width="512px" height="512px" style="shape-rendering:geometricPrecision; text-rendering:geometricPrecision; image-rendering:optimizeQuality; fill-rule:evenodd; clip-rule:evenodd" xmlns:xlink="http://www.w3.org/1999/xlink">
<g><path style="opacity:0.989" fill="#171516" d="M 232.5,-0.5 C 247.833,-0.5 263.167,-0.5 278.5,-0.5C 376.233,11.9285 446.733,62.2618 490,150.5C 501.263,176.89 508.429,204.224 511.5,232.5C 511.5,247.833 511.5,263.167 511.5,278.5C 498.638,378.437 446.638,449.603 355.5,492C 349.587,494.459 343.587,496.626 337.5,498.5C 332.263,491.757 326.429,485.423 320,479.5C 319.5,456.836 319.333,434.169 319.5,411.5C 445.959,395.909 497.126,325.575 473,200.5C 453.082,128.583 408.916,77.7499 340.5,48C 261.526,18.6974 187.859,28.3641 119.5,77C 52.4798,131.689 23.9798,202.189 34,288.5C 38.7643,316.695 50.931,341.029 70.5,361.5C 66.756,364.127 66.5893,367.127 70,370.5C 77.224,375.455 83.8907,381.122 90,387.5C 98.4181,399.33 106.085,411.663 113,424.5C 128.266,442.814 147.766,450.314 171.5,447C 178.209,445.263 184.876,443.429 191.5,441.5C 191.667,454.171 191.5,466.838 191,479.5C 184.571,485.423 178.737,491.757 173.5,498.5C 101.64,472.805 50.1397,425.139 19,355.5C 8.86416,330.622 2.36416,304.955 -0.5,278.5C -0.5,263.167 -0.5,247.833 -0.5,232.5C 10.0425,143.519 53.7092,76.352 130.5,31C 162.534,13.708 196.534,3.20796 232.5,-0.5 Z"/></g>
<g><path style="opacity:1" fill="#314a52" d="M 319.5,411.5 C 319.802,408.941 319.468,406.607 318.5,404.5C 317.153,391.972 312.153,381.139 303.5,372C 321.963,367.799 340.296,362.799 358.5,357C 385.972,344.562 403.472,323.729 411,294.5C 418.142,264.743 416.809,235.41 407,206.5C 403.045,197.415 398.212,188.915 392.5,181C 398.798,165.318 400.631,149.151 398,132.5C 395.964,124.241 391.797,117.408 385.5,112C 362.637,113.789 342.304,121.956 324.5,136.5C 300.494,129.74 275.994,126.74 251,127.5C 229.009,127.257 207.509,130.257 186.5,136.5C 169.403,123.129 150.07,114.796 128.5,111.5C 124.08,112.082 120.913,114.415 119,118.5C 112.171,130.313 109.838,142.98 112,156.5C 113.307,164.893 115.473,173.059 118.5,181C 98.0451,210.779 90.8784,243.612 97,279.5C 101.933,316.237 121.1,342.404 154.5,358C 171.692,363.464 189.026,368.297 206.5,372.5C 198.663,382.513 193.829,393.846 192,406.5C 190.729,407.883 189.229,408.883 187.5,409.5C 186.167,410.167 184.833,410.833 183.5,411.5C 164.189,407.901 145.189,402.901 126.5,396.5C 125.5,395.833 124.5,395.167 123.5,394.5C 116.083,382.821 106.75,372.988 95.5,365C 87.5932,359.759 79.2598,358.592 70.5,361.5C 50.931,341.029 38.7643,316.695 34,288.5C 23.9798,202.189 52.4798,131.689 119.5,77C 187.859,28.3641 261.526,18.6974 340.5,48C 408.916,77.7499 453.082,128.583 473,200.5C 497.126,325.575 445.959,395.909 319.5,411.5 Z"/></g>
<g><path style="opacity:1" fill="#fefefe" d="M 318.5,404.5 C 318.768,407.119 318.435,409.619 317.5,412C 278.535,416.186 239.535,416.519 200.5,413C 195.747,412.454 191.414,411.287 187.5,409.5C 189.229,408.883 190.729,407.883 192,406.5C 193.829,393.846 198.663,382.513 206.5,372.5C 189.026,368.297 171.692,363.464 154.5,358C 121.1,342.404 101.933,316.237 97,279.5C 90.8784,243.612 98.0451,210.779 118.5,181C 115.473,173.059 113.307,164.893 112,156.5C 109.838,142.98 112.171,130.313 119,118.5C 120.913,114.415 124.08,112.082 128.5,111.5C 150.07,114.796 169.403,123.129 186.5,136.5C 207.509,130.257 229.009,127.257 251,127.5C 275.994,126.74 300.494,129.74 324.5,136.5C 342.304,121.956 362.637,113.789 385.5,112C 391.797,117.408 395.964,124.241 398,132.5C 400.631,149.151 398.798,165.318 392.5,181C 398.212,188.915 403.045,197.415 407,206.5C 416.809,235.41 418.142,264.743 411,294.5C 403.472,323.729 385.972,344.562 358.5,357C 340.296,362.799 321.963,367.799 303.5,372C 312.153,381.139 317.153,391.972 318.5,404.5 Z"/></g>
<g><path style="opacity:1" fill="#fafbfb" d="M 123.5,394.5 C 103.371,387.278 85.7041,376.278 70.5,361.5C 79.2598,358.592 87.5932,359.759 95.5,365C 106.75,372.988 116.083,382.821 123.5,394.5 Z"/></g>
<g><path style="opacity:0.997" fill="#abbcc4" d="M 70.5,361.5 C 85.7041,376.278 103.371,387.278 123.5,394.5C 124.5,395.167 125.5,395.833 126.5,396.5C 141.899,414.738 160.899,419.738 183.5,411.5C 184.833,410.833 186.167,410.167 187.5,409.5C 191.414,411.287 195.747,412.454 200.5,413C 239.535,416.519 278.535,416.186 317.5,412C 318.435,409.619 318.768,407.119 318.5,404.5C 319.468,406.607 319.802,408.941 319.5,411.5C 319.333,434.169 319.5,456.836 320,479.5C 326.429,485.423 332.263,491.757 337.5,498.5C 318.525,504.893 299.191,509.226 279.5,511.5C 263.5,511.5 247.5,511.5 231.5,511.5C 211.809,509.226 192.475,504.893 173.5,498.5C 178.737,491.757 184.571,485.423 191,479.5C 191.5,466.838 191.667,454.171 191.5,441.5C 184.876,443.429 178.209,445.263 171.5,447C 147.766,450.314 128.266,442.814 113,424.5C 106.085,411.663 98.4181,399.33 90,387.5C 83.8907,381.122 77.224,375.455 70,370.5C 66.5893,367.127 66.756,364.127 70.5,361.5 Z"/></g>
<g><path style="opacity:1" fill="#181718" d="M 126.5,396.5 C 145.189,402.901 164.189,407.901 183.5,411.5C 160.899,419.738 141.899,414.738 126.5,396.5 Z"/></g>
</svg>
